<svg xmlns="http://www.w3.org/2000/svg" xmlns:xlink="http://www.w3.org/1999/xlink" width="500" zoomAndPan="magnify" viewBox="0 0 375 374.999991" height="500" preserveAspectRatio="xMidYMid meet" version="1.0"><defs><clipPath id="c3141d29c1"><path d="M 182 96 L 302.542969 96 L 302.542969 279 L 182 279 Z M 182 96 " clip-rule="nonzero"/></clipPath></defs><rect x="-37.5" width="450" fill="#ffffff" y="-37.499999" height="449.999989" fill-opacity="1"/><rect x="-37.5" width="450" fill="#ff3131" y="-37.499999" height="449.999989" fill-opacity="1"/><rect x="-37.5" width="450" fill="#3730a3" y="-37.499999" height="449.999989" fill-opacity="1"/><path fill="#ffffff" d="M 104.082031 278.972656 L 102.914062 278.988281 C 101.726562 279.007812 100.542969 278.9375 99.367188 278.78125 C 98.1875 278.628906 97.027344 278.386719 95.886719 278.066406 C 94.742188 277.742188 93.628906 277.335938 92.542969 276.851562 C 91.460938 276.367188 90.414062 275.804688 89.414062 275.167969 C 88.410156 274.53125 87.457031 273.828125 86.558594 273.050781 C 85.65625 272.277344 84.816406 271.441406 84.039062 270.542969 C 83.257812 269.648438 82.550781 268.699219 81.90625 267.699219 C 81.265625 266.699219 80.699219 265.660156 80.210938 264.578125 C 79.71875 263.496094 79.308594 262.382812 78.980469 261.242188 C 78.652344 260.101562 78.40625 258.941406 78.246094 257.765625 C 78.085938 256.589844 78.007812 255.40625 78.019531 254.21875 C 78.03125 253.03125 78.128906 251.847656 78.308594 250.675781 C 78.492188 249.5 78.757812 248.347656 79.109375 247.210938 C 79.457031 246.078125 79.886719 244.972656 80.398438 243.898438 C 80.90625 242.828125 81.492188 241.796875 82.152344 240.808594 C 82.8125 239.820312 83.539062 238.886719 84.335938 238.003906 L 117.710938 200.972656 C 118.230469 200.398438 118.722656 199.796875 119.183594 199.171875 C 119.648438 198.546875 120.082031 197.902344 120.484375 197.238281 C 120.886719 196.570312 121.257812 195.890625 121.59375 195.1875 C 121.929688 194.488281 122.234375 193.773438 122.503906 193.042969 C 122.773438 192.3125 123.007812 191.574219 123.207031 190.820312 C 123.40625 190.070312 123.566406 189.3125 123.695312 188.542969 C 123.820312 187.777344 123.914062 187.003906 123.964844 186.230469 C 124.019531 185.453125 124.035156 184.675781 124.015625 183.898438 C 123.996094 183.121094 123.9375 182.347656 123.84375 181.578125 C 123.75 180.804688 123.621094 180.039062 123.453125 179.28125 C 123.289062 178.519531 123.085938 177.769531 122.847656 177.03125 C 122.609375 176.289062 122.339844 175.5625 122.03125 174.847656 C 121.726562 174.132812 121.386719 173.433594 121.011719 172.753906 C 120.636719 172.070312 120.234375 171.40625 119.796875 170.765625 C 119.363281 170.121094 118.894531 169.5 118.402344 168.898438 C 117.90625 168.300781 117.382812 167.726562 116.832031 167.175781 L 87.664062 138.007812 C 72.332031 122.671875 82.949219 96.445312 104.636719 96.097656 C 106.222656 96.074219 107.796875 96.199219 109.359375 96.480469 C 110.917969 96.757812 112.4375 97.1875 113.917969 97.757812 C 115.394531 98.332031 116.804688 99.042969 118.148438 99.890625 C 119.488281 100.738281 120.734375 101.707031 121.886719 102.796875 L 190.421875 167.507812 C 191.015625 168.074219 191.585938 168.667969 192.121094 169.285156 C 192.660156 169.90625 193.167969 170.554688 193.640625 171.226562 C 194.113281 171.898438 194.550781 172.59375 194.953125 173.308594 C 195.355469 174.023438 195.722656 174.757812 196.054688 175.511719 C 196.382812 176.261719 196.675781 177.03125 196.925781 177.8125 C 197.179688 178.59375 197.390625 179.386719 197.566406 180.191406 C 197.738281 180.992188 197.871094 181.800781 197.960938 182.621094 C 198.054688 183.4375 198.105469 184.253906 198.113281 185.078125 C 198.125 185.898438 198.09375 186.71875 198.019531 187.535156 C 197.945312 188.355469 197.832031 189.167969 197.679688 189.972656 C 197.523438 190.78125 197.328125 191.578125 197.09375 192.367188 C 196.859375 193.152344 196.585938 193.925781 196.277344 194.6875 C 195.964844 195.449219 195.613281 196.191406 195.226562 196.914062 C 194.839844 197.640625 194.417969 198.34375 193.960938 199.027344 C 193.503906 199.707031 193.015625 200.367188 192.492188 201 C 191.96875 201.632812 191.414062 202.238281 190.828125 202.816406 L 121.007812 271.878906 C 119.890625 272.984375 118.675781 273.972656 117.367188 274.847656 C 116.0625 275.71875 114.683594 276.460938 113.230469 277.066406 C 111.78125 277.675781 110.289062 278.140625 108.75 278.460938 C 107.210938 278.78125 105.65625 278.953125 104.082031 278.972656 Z M 104.082031 278.972656 " fill-opacity="1" fill-rule="nonzero"/><g clip-path="url(#c3141d29c1)"><path fill="#ffffff" d="M 208.679688 278.972656 L 207.511719 278.988281 C 206.324219 279.007812 205.140625 278.9375 203.960938 278.78125 C 202.785156 278.628906 201.625 278.386719 200.480469 278.066406 C 199.339844 277.742188 198.226562 277.335938 197.140625 276.851562 C 196.054688 276.367188 195.011719 275.804688 194.011719 275.167969 C 193.007812 274.53125 192.054688 273.828125 191.15625 273.050781 C 190.253906 272.277344 189.414062 271.441406 188.636719 270.542969 C 187.855469 269.648438 187.144531 268.699219 186.503906 267.699219 C 185.863281 266.699219 185.296875 265.660156 184.804688 264.578125 C 184.316406 263.496094 183.90625 262.382812 183.578125 261.242188 C 183.25 260.101562 183.003906 258.941406 182.84375 257.765625 C 182.679688 256.589844 182.605469 255.40625 182.617188 254.21875 C 182.628906 253.03125 182.726562 251.847656 182.90625 250.675781 C 183.089844 249.5 183.355469 248.347656 183.703125 247.210938 C 184.054688 246.078125 184.484375 244.972656 184.996094 243.898438 C 185.503906 242.828125 186.089844 241.796875 186.75 240.808594 C 187.410156 239.820312 188.136719 238.886719 188.929688 238.003906 L 222.304688 200.972656 C 222.828125 200.398438 223.320312 199.796875 223.78125 199.171875 C 224.246094 198.546875 224.679688 197.902344 225.082031 197.238281 C 225.484375 196.570312 225.851562 195.886719 226.191406 195.1875 C 226.527344 194.488281 226.832031 193.773438 227.101562 193.042969 C 227.371094 192.3125 227.605469 191.574219 227.800781 190.820312 C 228 190.070312 228.164062 189.3125 228.292969 188.542969 C 228.417969 187.777344 228.507812 187.003906 228.5625 186.230469 C 228.617188 185.453125 228.632812 184.675781 228.613281 183.898438 C 228.59375 183.121094 228.535156 182.347656 228.441406 181.578125 C 228.347656 180.804688 228.21875 180.039062 228.050781 179.28125 C 227.886719 178.519531 227.683594 177.769531 227.445312 177.03125 C 227.207031 176.289062 226.933594 175.5625 226.628906 174.847656 C 226.320312 174.132812 225.980469 173.433594 225.609375 172.753906 C 225.234375 172.070312 224.832031 171.40625 224.394531 170.765625 C 223.957031 170.121094 223.492188 169.5 222.996094 168.898438 C 222.503906 168.300781 221.980469 167.726562 221.429688 167.175781 L 192.261719 138.007812 C 176.925781 122.671875 187.546875 96.445312 209.230469 96.097656 C 210.816406 96.074219 212.386719 96.199219 213.949219 96.480469 C 215.507812 96.761719 217.027344 97.1875 218.503906 97.761719 C 219.984375 98.335938 221.390625 99.046875 222.730469 99.890625 C 224.074219 100.738281 225.320312 101.707031 226.472656 102.796875 L 295.011719 167.511719 C 295.609375 168.074219 296.175781 168.667969 296.714844 169.289062 C 297.253906 169.910156 297.757812 170.554688 298.230469 171.226562 C 298.703125 171.898438 299.140625 172.59375 299.546875 173.308594 C 299.949219 174.023438 300.316406 174.757812 300.644531 175.511719 C 300.972656 176.265625 301.265625 177.03125 301.519531 177.8125 C 301.769531 178.59375 301.984375 179.386719 302.15625 180.191406 C 302.328125 180.992188 302.460938 181.804688 302.554688 182.621094 C 302.644531 183.4375 302.695312 184.253906 302.707031 185.078125 C 302.714844 185.898438 302.683594 186.71875 302.613281 187.539062 C 302.539062 188.355469 302.425781 189.167969 302.269531 189.976562 C 302.117188 190.78125 301.921875 191.578125 301.6875 192.367188 C 301.453125 193.15625 301.179688 193.929688 300.867188 194.6875 C 300.554688 195.449219 300.207031 196.191406 299.820312 196.914062 C 299.433594 197.640625 299.011719 198.34375 298.554688 199.027344 C 298.097656 199.710938 297.605469 200.367188 297.082031 201 C 296.558594 201.632812 296.003906 202.242188 295.421875 202.816406 L 225.597656 271.882812 C 224.480469 272.984375 223.269531 273.976562 221.960938 274.847656 C 220.65625 275.71875 219.277344 276.460938 217.828125 277.066406 C 216.378906 277.675781 214.882812 278.140625 213.34375 278.460938 C 211.804688 278.78125 210.25 278.953125 208.679688 278.972656 Z M 208.679688 278.972656 " fill-opacity="1" fill-rule="nonzero"/></g></svg>